<svg width="37" height="37" viewBox="0 0 37 37" fill="none" xmlns="http://www.w3.org/2000/svg">
<g id="feather:upload-cloud">
<g id="Group">
<path id="Vector" d="M24.457 24.4285L18.418 18.3896L12.379 24.4285" stroke="black" stroke-opacity="0.4" stroke-width="1.50974" stroke-linecap="round" stroke-linejoin="round"/>
<path id="Vector_2" d="M18.418 18.3896V31.9772" stroke="black" stroke-opacity="0.4" stroke-width="1.50974" stroke-linecap="round" stroke-linejoin="round"/>
<path id="Vector_3" d="M31.0848 28.0369C32.5573 27.2341 33.7205 25.9638 34.3909 24.4265C35.0613 22.8892 35.2006 21.1724 34.787 19.5471C34.3733 17.9218 33.4301 16.4806 32.1064 15.4508C30.7826 14.4211 29.1536 13.8615 27.4765 13.8604H25.5742C25.1172 12.0929 24.2655 10.4519 23.0831 9.06092C21.9006 7.66993 20.4182 6.5651 18.7473 5.82949C17.0764 5.09388 15.2605 4.74664 13.4361 4.81385C11.6117 4.88107 9.82622 5.36101 8.21398 6.21759C6.60174 7.07416 5.20467 8.28508 4.12779 9.75931C3.0509 11.2335 2.32224 12.9327 1.99657 14.7291C1.67091 16.5255 1.75671 18.3723 2.24754 20.1307C2.73837 21.8892 3.62145 23.5135 4.83039 24.8815" stroke="black" stroke-opacity="0.4" stroke-width="1.50974" stroke-linecap="round" stroke-linejoin="round"/>
<path id="Vector_4" d="M24.457 24.4285L18.418 18.3896L12.379 24.4285" stroke="black" stroke-opacity="0.4" stroke-width="1.50974" stroke-linecap="round" stroke-linejoin="round"/>
</g>
</g>
</svg>
